<svg class="logo" width="239" height="66" viewBox="0 0 239 66" fill="none" xmlns="http://www.w3.org/2000/svg">
<path d="M89.3389 17.9521C92.8588 17.9521 95.9099 18.5386 98.4912 19.7119C101.073 20.8852 103.068 22.6163 104.476 24.9043C105.883 27.1335 106.587 29.8615 106.587 33.0879V65.1201H98.4033V59.8672C97.9819 60.2856 97.5418 60.6875 97.083 61.0723C95.2645 62.5974 93.2993 63.7997 91.1875 64.6797C89.0755 65.5597 86.8749 66 84.5869 66C81.595 66 78.9257 65.4135 76.5791 64.2402C74.2325 63.0669 72.3552 61.4536 70.9473 59.4004C69.5979 57.2884 68.9229 54.8238 68.9229 52.0078C68.9229 49.5439 69.3632 47.3733 70.2432 45.4961C71.1232 43.6188 72.4139 42.064 74.1152 40.832C75.8751 39.6001 78.0458 38.6619 80.627 38.0166C83.267 37.3713 86.2887 37.0479 89.6914 37.0479H98.4033V35.0244C98.4033 32.4431 97.4642 30.3604 95.5869 28.7764C93.7683 27.1337 91.4507 26.3125 88.6348 26.3125C86.0537 26.3126 83.7075 26.8406 81.5957 27.8965C79.5424 28.9525 77.6642 30.5657 75.9629 32.7363L70.0674 26.8398C72.8246 23.848 75.7872 21.619 78.9551 20.1523C82.1816 18.6857 85.643 17.9522 89.3389 17.9521ZM162.6 44.9678C162.6 49.0158 163.538 52.2139 165.415 54.5605C167.351 56.907 170.02 58.08 173.423 58.0801C175.124 58.0801 176.679 57.816 178.087 57.2881C179.495 56.7014 180.698 55.9094 181.695 54.9121C182.751 53.9148 183.573 52.7117 184.159 51.3037C184.746 49.8959 185.039 48.3709 185.039 46.7285V18.9199H194.104V65.1201H185.039V57.7305C184.469 58.6232 183.795 59.4738 183.016 60.2803C181.373 62.0403 179.407 63.4479 177.119 64.5039C174.831 65.5012 172.367 66 169.728 66C166.442 66 163.567 65.2372 161.104 63.7119C158.698 62.1866 156.821 60.0453 155.472 57.2881C154.181 54.5308 153.535 51.245 153.535 47.4316V18.9199H162.6V44.9678ZM221.688 17.9521C223.859 17.9521 226 18.2454 228.112 18.832C230.283 19.4187 232.278 20.2691 234.097 21.3838C235.915 22.4984 237.441 23.8184 238.673 25.3438L233.48 31.0645C232.366 29.9498 231.134 28.9815 229.784 28.1602C228.494 27.2802 227.173 26.6051 225.824 26.1357C224.475 25.6665 223.243 25.4317 222.129 25.4316C220.897 25.4316 219.782 25.5495 218.784 25.7842C217.787 26.0188 216.936 26.3706 216.232 26.8398C215.587 27.3092 215.088 27.8966 214.736 28.6006C214.384 29.3045 214.208 30.0967 214.208 30.9766C214.267 31.739 214.443 32.472 214.736 33.1758C215.088 33.821 215.558 34.3784 216.145 34.8477C216.79 35.317 217.758 35.8158 219.049 36.3438C220.339 36.8717 221.982 37.3705 223.977 37.8398C226.91 38.6025 229.315 39.4539 231.192 40.3926C233.128 41.2725 234.654 42.2984 235.769 43.4717C236.942 44.5863 237.763 45.8772 238.232 47.3438C238.702 48.8104 238.937 50.4538 238.937 52.2725C238.936 54.9123 238.174 57.2885 236.648 59.4004C235.182 61.4536 233.187 63.0669 230.664 64.2402C228.142 65.4134 225.326 66 222.217 66C218.345 66 214.853 65.3259 211.744 63.9766C208.635 62.6272 206.053 60.6322 204 57.9922L210.16 52.7119C211.92 54.7652 213.828 56.2615 215.881 57.2002C217.993 58.0801 220.369 58.5205 223.009 58.5205C224.065 58.5205 225.032 58.4026 225.912 58.168C226.851 57.8747 227.643 57.4644 228.288 56.9365C228.992 56.4085 229.52 55.7919 229.872 55.0879C230.224 54.3252 230.4 53.504 230.4 52.624C230.4 51.0987 229.843 49.8664 228.729 48.9277C228.142 48.5171 227.203 48.0777 225.912 47.6084C224.68 47.0804 223.067 46.5524 221.072 46.0244C217.67 45.1445 214.883 44.1468 212.713 43.0322C210.542 41.9176 208.87 40.656 207.696 39.248C206.816 38.1334 206.171 36.9303 205.761 35.6396C205.35 34.2904 205.145 32.8241 205.145 31.2402C205.145 28.6589 205.878 26.3706 207.345 24.376C208.811 22.3814 210.776 20.8265 213.24 19.7119C215.763 18.5386 218.579 17.9521 221.688 17.9521ZM9.06445 65.1201H0V18.9199H9.06445V65.1201ZM32.0605 39.6094L52.916 18.9199H65.1484L43.459 39.2568L65.7637 65.1201H54.1484L37.0947 45.2246L32.0605 49.9453V65.1201H22.9961V0H32.0605V39.6094ZM141.275 17.9521C142.272 17.9522 143.211 18.0399 144.091 18.2158C145.029 18.3918 145.763 18.5974 146.291 18.832L143.915 28.6885C143.211 28.3952 142.419 28.1604 141.539 27.9844C140.718 27.7497 139.896 27.6319 139.075 27.6318C137.491 27.6318 135.966 27.9553 134.499 28.6006C133.091 29.1873 131.829 30.0377 130.715 31.1523C129.659 32.2083 128.808 33.47 128.163 34.9365C127.518 36.3444 127.195 37.8994 127.195 39.6006V65.1201H118.043V18.9199H127.195V27.5674C127.809 26.2447 128.601 25.0043 129.571 23.8477C131.155 22.0292 132.945 20.5921 134.939 19.5361C136.993 18.4802 139.105 17.9521 141.275 17.9521ZM88.5469 44.2637C86.787 44.2637 85.2028 44.44 83.7949 44.792C82.4458 45.0853 81.2726 45.5842 80.2754 46.2881C79.3367 46.9334 78.6324 47.7254 78.1631 48.6641C77.6938 49.544 77.459 50.6001 77.459 51.832C77.459 53.1225 77.7817 54.2665 78.4268 55.2637C79.0721 56.2023 79.9527 56.9359 81.0674 57.4639C82.182 57.9919 83.4728 58.2559 84.9395 58.2559C87.0512 58.2558 89.0457 57.9041 90.9229 57.2002C92.8589 56.4375 94.5607 55.4108 96.0273 54.1201C96.9479 53.3411 97.7392 52.5079 98.4033 51.6221V44.2637H88.5469Z" fill="#323232"/>
<style>
.logo * { fill: #000000; }
@media (prefers-color-scheme: dark) {
  .logo * { fill: #ffffff; }
}
</style>
</svg>
